<svg width="180" height="180" viewBox="0 0 180 180" fill="none" xmlns="http://www.w3.org/2000/svg">
<rect width="180" height="180" fill="white"/>
<path d="M34.1751 126.344C33.2893 124.866 33.2742 123.024 34.1357 121.532L86.478 30.8723C88.2869 27.7391 92.7962 27.7021 94.6563 30.8052L104.012 46.4123C104.898 47.8901 104.913 49.7319 104.051 51.224L51.7092 141.884C49.9002 145.017 45.3909 145.054 43.5308 141.951L34.1751 126.344Z" fill="black"/>
<path d="M36.2107 122.73L88.553 32.0703C89.4484 30.5194 91.6805 30.5011 92.6013 32.0371L101.957 47.6442C102.395 48.3757 102.403 49.2874 101.976 50.026L49.6341 140.686C48.7387 142.236 46.5066 142.255 45.5858 140.719L36.2302 125.112C35.7917 124.38 35.7842 123.468 36.2107 122.73ZM100.384 89.6757L110.296 73.1401C111.193 71.6438 113.35 71.6131 114.29 73.0832L145.443 121.848C145.923 122.598 145.937 123.556 145.479 124.32L135.992 140.144C135.096 141.641 132.938 141.671 131.999 140.201L121.369 123.563C120.057 121.509 117.789 120.267 115.352 120.267L81.2187 120.267C79.4278 120.267 78.2959 118.343 79.1657 116.777L88.0041 100.872C88.4183 100.126 89.2042 99.6637 90.057 99.6637L95.5098 99.6637C100.093 99.6637 102.866 94.6004 100.399 90.7385C100.193 90.4157 100.187 90.0042 100.384 89.6757Z" stroke="black" stroke-width="4.79201" stroke-linejoin="round"/>
</svg>
